<svg xmlns="http://www.w3.org/2000/svg" viewBox="0 0 56 56" fill-rule="evenodd" clip-rule="evenodd" stroke-linejoin="round" stroke-miterlimit="2">
  <path fill="#ffffff" d="M 25,43 H 14 C 10.686,43 8,40.314 8,37 8,31.054 8,19.946 8,14 c 0,-3.314 2.686,-6 6,-6 8.367,0 27.633,0 36,0 3.314,0 6,2.686 6,6 0,5.946 0,17.054 0,23 0,3.314 -2.686,6 -6,6 H 38.999 v 9 c 0,1.061 -0.421,2.078 -1.171,2.828 C 37.078,55.579 36.06,56 34.999,56 33.257,56 30.742,56 29,56 27.939,56 26.921,55.579 26.171,54.828 25.421,54.078 25,53.061 25,52 Z M 38.999,39 H 50 c 1.105,0 2,-0.895 2,-2 0,-5.946 0,-17.054 0,-23 0,-1.105 -0.895,-2 -2,-2 -8.367,0 -27.633,0 -36,0 -1.105,0 -2,0.895 -2,2 0,5.946 0,17.054 0,23 0,1.105 0.895,2 2,2 h 11 v -6 h -6 c -0.809,0 -1.538,-0.487 -1.848,-1.235 -0.309,-0.747 -0.138,-1.607 0.434,-2.179 l 12.999,-13 C 30.96,16.211 31.469,16 31.999,16 c 0.531,0 1.039,0.211 1.414,0.586 l 13,13 c 0.572,0.572 0.744,1.432 0.434,2.179 -0.31,0.748 -1.039,1.235 -1.848,1.235 0,0 -3.63,0 -6,0 z"/>
</svg>
