<svg xmlns="http://www.w3.org/2000/svg" viewBox="0 0 58 60" fill-rule="evenodd" clip-rule="evenodd" stroke-linejoin="round" stroke-miterlimit="2">
  <path fill="#ffffff" d="M 58,21.657 C 58,20.066 57.368,18.539 56.243,17.414 53.947,15.119 48.881,10.053 46.586,7.757 45.461,6.632 43.934,6 42.343,6 36.958,6 19.846,6 12,6 8.686,6 6,8.686 6,12 c 0,9.04 0,30.96 0,40 0,3.314 2.686,6 6,6 9.04,0 30.96,0 40,0 3.314,0 6,-2.686 6,-6 z M 48,54 V 36 C 48,35.47 47.789,34.961 47.414,34.586 47.039,34.211 46.53,34 46,34 41.561,34 22.439,34 18,34 17.47,34 16.961,34.211 16.586,34.586 16.211,34.961 16,35.47 16,36 V 54 Z M 18,10 v 6 c 0,0.53 0.211,1.039 0.586,1.414 C 18.961,17.789 19.47,18 20,18 c 3.732,0 15.268,0 19,0 0.53,0 1.039,-0.211 1.414,-0.586 C 40.789,17.039 41,16.53 41,16 v -6 z"/>
</svg>
